/* XPM */
static char *walkDown_01[] = {
/* columns rows colors chars-per-pixel */
"32 32 11 1 ",
"  c #32313B",
". c #444774",
"X c #4C60AA",
"o c #CA60AE",
"O c #000000",
"+ c #2CE8F5",
"@ c #5FC9E7",
"# c #85DAEB",
"$ c white",
"R c red",
"S c #EB8585"
/* pixels */
"................................",
"................................",
"................................",
"...............R$...............",
"..............RR$$..............",
"..............RR$$..............",
"....$.........RR$$..............",
"...S$$........oooo..............",
"...S$$......OOOOO$OO............",
"..SS$$$....OOOOOOO$$O...........",
"..SS$$$...OOOOOOOO$$OO..........",
"..SS$$$..OOOOOOOOOOOOOO.........",
".SSS$$$$OOOOOOOOOOOOOOOO........",
".SSS$$$$OOOOOOOOOOOOOOOOO.......",
".SSS$$$$OOOOOOOOOOOOOOOOO.......",
".SSS$$$$OOO$ROOOOO$ROOOO$R......",
".SSS$$$$OOORROOOOORROOOOR+......",
".SSS$$$$OOOOOOOOOOOOOOOOOO......",
".SSS$$$$OOOOOOOOOOOOOOOOOOO.....",
".SSS$$$$XXXXXX     XXXXXXXO.....",
".SSS$$$$OOO           XOOOO.....",
".SSS$$$$OO oooo     ooooOOO.....",
"..SS$$$OO RRRRRR   RRRRRROO.....",
".oooooooORRRRR  R R  RRRRROO....",
"...$$$OOORRRRR  R R  RRRRROO....",
"..$$$$$XXRRRRRXXR RXXRRRRRXX....",
"..$$$$$OORRRRRRRR RRRRRRRROO....",
"..$$$$$OO RRRRRR   RRRRRROOO....",
"...$$$OOOO             XOOOO....",
"...oooOOOOOO          XOOOOO....",
"...oooOOOOOOOO      XXOOOOOO....",
"..........X          ..........."
};
