/* XPM */
static char *enemy_down[] = {
/* columns rows colors chars-per-pixel */
"50 50 207 2",
"   c #000000",
".  c #07080D",
"X  c #0A0000",
"o  c #0C060A",
"O  c #0B0B0D",
"+  c #0F0E12",
"@  c #0B0F1A",
"#  c #1E0000",
"$  c #120910",
"%  c #121216",
"&  c #10111C",
"*  c #18171C",
"=  c #1F1F1F",
"-  c #0E1221",
";  c #151624",
":  c #13182A",
">  c #1C1C22",
",  c #191A2B",
"<  c #171D34",
"1  c #1E202C",
"2  c #1C243F",
"3  c #230000",
"4  c #2C0000",
"5  c #3E0000",
"6  c #251220",
"7  c #32182B",
"8  c #232229",
"9  c #2E2E2E",
"0  c #22233A",
"q  c #2A253D",
"w  c #2C2B33",
"e  c #3C2D36",
"r  c #392F38",
"t  c #32313B",
"y  c #3F3F3F",
"u  c #262741",
"i  c #272D4C",
"p  c #2B2D49",
"a  c #263055",
"s  c #2A365F",
"d  c #343444",
"f  c #33364A",
"g  c #36394F",
"h  c #3E3444",
"j  c #3A354D",
"k  c #3E3F41",
"l  c #333557",
"z  c #33365A",
"x  c #373B53",
"c  c #37395E",
"v  c #383C56",
"b  c #3A3F5D",
"n  c #2F3C6A",
"m  c #343E6C",
"M  c #3A3D64",
"N  c #3A405F",
"B  c #3E436C",
"V  c #3F4771",
"C  c #3D4978",
"Z  c #470000",
"A  c #4F0000",
"S  c #561A1F",
"D  c #472B34",
"F  c #52252C",
"G  c #58272F",
"H  c #532831",
"J  c #740000",
"K  c #7E0000",
"L  c #631B21",
"P  c #62252D",
"I  c #762027",
"U  c #4B2441",
"Y  c #413043",
"T  c #47374B",
"R  c #47375D",
"E  c #4E3950",
"W  c #51364A",
"Q  c #5B3E65",
"!  c #653057",
"~  c #643A5F",
"^  c #7E304F",
"/  c #474747",
"(  c #5F5F5F",
")  c #40436E",
"_  c #444774",
"`  c #474874",
"'  c #4B4A76",
"]  c #4F527C",
"[  c #554069",
"{  c #564D75",
"}  c #554A7B",
"|  c #525576",
" . c #5F5176",
".. c #6D5678",
"X. c #74456D",
"o. c #785A79",
"O. c #6F6F6F",
"+. c #747474",
"@. c #7F7F7F",
"#. c #3E4E8B",
"$. c #286C81",
"%. c #207A81",
"&. c #414E82",
"*. c #46528B",
"=. c #465594",
"-. c #475A9F",
";. c #485A9C",
":. c #555881",
">. c #5B5188",
",. c #5B5D85",
"<. c #4A5CA2",
"1. c #5F5BA2",
"2. c #4C60AA",
"3. c #614C80",
"4. c #6D4D85",
"5. c #735E8E",
"6. c #7E518D",
"7. c #64678C",
"8. c #727596",
"9. c #35ABC4",
"0. c #39D9E5",
"q. c #7E809F",
"w. c #8F0000",
"e. c #9F0000",
"r. c #96181D",
"t. c #861C22",
"y. c #8C1B20",
"u. c #A51519",
"i. c #BF0000",
"p. c #BE0F12",
"a. c #B21216",
"s. c #AD1F32",
"d. c #B11627",
"f. c #B81A2B",
"g. c #AB2638",
"h. c #BA213B",
"j. c #852E4B",
"k. c #8F3C6A",
"l. c #A43056",
"z. c #825E7A",
"x. c #8F6262",
"c. c #8F6B6B",
"v. c #8D627B",
"b. c #CF0000",
"n. c #CB0C0E",
"m. c #CA0C12",
"M. c #DF0000",
"N. c #D0111D",
"B. c #C51220",
"V. c #CB1A28",
"C. c #C61D32",
"Z. c #D2182A",
"A. c #DC1221",
"S. c #DC1F36",
"D. c #E50607",
"F. c #EF0000",
"G. c #EA070C",
"H. c #E80B14",
"J. c #F20304",
"K. c #F2060B",
"L. c #FE0000",
"P. c #FB060A",
"I. c #FF0F0F",
"U. c #E02039",
"Y. c #EB2441",
"T. c #875391",
"R. c #945F86",
"E. c #9C678E",
"W. c #A45491",
"Q. c #AD5798",
"!. c #A470A6",
"~. c #CC7981",
"^. c #D57C83",
"/. c #DB7F83",
"(. c #CA60AE",
"). c #8F8F8F",
"_. c #898B94",
"`. c #8B8E9A",
"'. c #8A8CA8",
"]. c #9B9DB5",
"[. c #A2A4BA",
"{. c #B3B3B3",
"}. c #ADAEC2",
"|. c #A5AFD4",
" X c #BEBFCF",
".X c #DD8083",
"XX c #E38284",
"oX c #EA8485",
"OX c #FFAFAF",
"+X c #FFBFBF",
"@X c #DA91C7",
"#X c #E4AFD6",
"$X c #CFCFCF",
"%X c #D5D5D5",
"&X c #D1D1DC",
"*X c #DFDFDF",
"=X c #DEDEE6",
"-X c #F7D8DD",
";X c #E4E5EA",
":X c #E7E8ED",
">X c #ECE6EA",
",X c #EDEDEF",
"<X c #FAE0E0",
"1X c #F3F3F5",
"2X c #F6F7F9",
"3X c #FBF5F9",
"4X c gray100",
/* pixels */
"_ _ _ _ _ _ _ _ _ _ _ _ _ _ _ _ _ _ _ _ _ _ _ _ _ _ _ _ _ _ _ _ _ _ _ _ _ _ _ _ _ _ _ _ _ _ _ _ _ _ ",
"_ _ _ _ _ _ _ _ _ _ _ _ _ _ _ _ _ _ _ _ _ _ _ _ _ _ _ _ _ _ _ _ _ _ _ _ _ _ _ _ _ _ _ _ _ _ _ _ _ _ ",
"_ _ _ _ _ _ _ _ _ _ _ _ _ _ _ _ _ _ _ _ _ _ _ _ _ _ _ _ _ _ _ _ _ _ _ _ _ _ _ _ _ _ _ _ _ _ _ _ _ _ ",
"_ _ _ _ _ _ _ _ _ _ _ _ _ _ _ _ _ _ _ _ _ _ _ _ _ _ _ _ _ _ _ _ _ _ _ _ _ _ _ _ _ _ _ _ _ _ _ _ _ _ ",
"_ _ _ _ _ _ _ _ _ _ _ _ _ _ _ _ _ _ _ _ _ _ _ ~ j.8.7._ _ _ _ _ _ _ _ _ _ _ _ _ _ _ _ _ _ _ _ _ _ _ ",
"_ _ _ _ _ _ _ _ _ _ _ _ _ _ _ _ _ _ _ _ _ _ _ s.P.4X}._ _ _ _ _ _ _ _ _ _ _ _ _ _ _ _ _ _ _ _ _ _ _ ",
"_ _ _ _ _ _ _ _ _ _ _ _ _ _ _ _ _ _ _ _ _ [ N.G.L.4X,X&X:._ _ _ _ _ _ _ _ _ _ _ _ _ _ _ _ _ _ _ _ _ ",
"_ _ _ _ _ _ _ _ _ _ _ _ _ _ _ _ _ _ _ _ _ Q L.L.L.4X4X4X,._ _ _ _ _ _ _ _ _ _ _ _ _ _ _ _ _ _ _ _ _ ",
"_ _ _ _ _ _ _ _ _ _ _ _ _ _ _ _ _ _ _ _ _ Q L.L.L.4X4X4X,._ _ _ _ _ _ _ _ _ _ _ _ _ _ _ _ _ _ _ _ _ ",
"_ _ _ _ ` ` ].[._ _ _ _ _ _ _ _ _ _ _ _ _ Q L.L.L.4X4X4X,._ _ _ _ _ _ _ _ _ _ _ _ _ _ _ _ _ _ _ _ _ ",
"_ _ _ _ ` ' &X=X] ` _ _ _ _ _ _ _ _ _ _ _ Q P.P.P.3X3X3X,._ _ _ _ _ _ _ _ _ _ _ _ _ _ _ _ _ _ _ _ _ ",
"_ _ _ _ o.oX<X4X4X'._ _ _ _ _ _ _ _ _ _ _ } (.(.(.(.(.(.} _ _ _ _ _ _ _ _ _ _ _ _ _ _ _ _ _ _ _ _ _ ",
"_ _ _ _ o.oX<X4X4X'._ _ _ _ _ _ _ _ M 0 0 q ! ! ! ! E.#Xj 0 0 M _ _ _ _ _ _ _ _ _ _ _ _ _ _ _ _ _ _ ",
"_ _ _ _ o.oX<X4X4X'._ _ _ _ _ _ _ _ l               O.4X=     l _ _ _ _ _ _ _ _ _ _ _ _ _ _ _ _ _ _ ",
"_ _ _ ~.XXoX<X4X4X2X:X_ _ _ _ _ _ @                 . O %X,X,X/ & _ _ _ _ _ _ _ _ _ _ _ _ _ _ _ _ _ ",
"_ _ _ ^.oXoX<X4X4X4X1X_ _ _ _ M p +                     *X4X4Xy . p M _ _ _ _ _ _ _ _ _ _ _ _ _ _ _ ",
"_ _ ` ^.oXoX<X4X4X4X1X_ _ _ _ p                         *X4X4Xy     p _ _ _ _ _ _ _ _ _ _ _ _ _ _ _ ",
"_ _ _ ^.oXoX<X4X4X4X1X_ _ _ @ +                         9 9 9 O     O & _ _ _ _ _ _ _ _ _ _ _ _ _ _ ",
"_ { ../.oXoX<X4X4X4X2X8.| l                                             l M _ _ _ _ _ _ _ _ _ _ _ _ ",
"_ v.oXoXoXoX<X4X4X4X4X4X@.                                                0 _ _ _ _ _ _ _ _ _ _ _ _ ",
"_ v.oXoXoXoX<X4X4X4X4X4X@.                                                + ; ) _ _ _ _ _ _ _ _ _ _ ",
"_ v.oXoXoXoX<X4X4X4X4X4X@.                                                    ) _ _ _ _ _ _ _ _ _ _ ",
"_ v.oXoXoXoX<X4X4X4X4X4X@.                                                    B _ _ _ _ _ _ _ _ _ _ ",
"_ v.oXoXoXoX<X4X4X4X4X4X@.        +.c.w.4               @.x.w.3           / ).g.j._ _ _ _ _ _ _ _ _ ",
"_ v.oXoXoXoX<X4X4X4X4X4X@.        $X+XL.A               *XOXL.5           @.4XI.f._ _ _ _ _ _ _ _ _ ",
"_ v.oXoXoXoX<X4X4X4X4X4X@.        b.L.L.A               M.L.L.Z           K L.0.9._ _ _ _ _ _ _ _ _ ",
"_ v.oXoXoXoX<X4X4X4X4X4X@.        J w.w.4               K w.w.3           Z w.%.$._ _ _ _ _ _ _ _ _ ",
"_ v.oXoXoXoX<X4X4X4X4X4X@.                                                      , _ _ _ _ _ _ _ _ _ ",
"_ v.oXoXoXoX<X4X4X4X4X4Xq.                                                      . . M _ _ _ _ _ _ _ ",
"_ v.oXoXoXoX<X4X4X4X4X4X_.< < < < < < < < < + + + % + + + & < < < 2 < < < < < < -   c _ _ _ _ _ _ _ ",
"_ v.oXoXoXoX<X4X4X4X4X4X|.2.<.<.2.<.2.2.2.;.t t t t t t t N 2.2.<.2.2.<.2.2.2.2.n   c _ _ _ _ _ _ _ ",
"_ v.oXoXoXoX<X4X4X4X4X4X_.; : : < f v v v x t t t t t t t d v v v v *.<.: : : : @   c _ _ _ _ _ _ _ ",
"_ v.oXoXoXoX<X4X4X4X4X4X@.      O Y E E E E E h t t t t t t t T E E >.1.6 $         c _ _ _ _ _ _ _ ",
"_ v.oXoXoXoX<X4X4X4X4X4X@.    % t Q.(.(.(.(.(.X.t t t t t t t W.(.(.(.(.(.!         c _ _ _ _ _ _ _ ",
"V ..z..XoXoX<X4X4X4X1X( 9   > S a.U.Y.Y.Y.Y.Y.V.a.t t t t G a.S.Y.Y.Y.Y.Y.B.e.X     c _ _ _ _ _ _ _ ",
"_ ` ` ^.oXoX-X3X3X3X>Xo .   e t.L.L.L.L.L.L.F.J.J.e r t r I J.J.J.L.L.L.L.L.L.# X   l ) _ _ _ _ _ _ ",
"_ 6.(.(.(.(.(.(.(.(.(.(.!   F.L.L.L.L.L.L.D.t t t L.u.t D.p.t t G L.L.L.L.L.L.L.e.    & _ _ _ _ _ _ ",
"_ 3.T.T.!.#X#X#X#XR.! ! 7   F.L.L.L.L.L.L.D.t t t L.u.t D.p.t t G L.L.L.L.L.L.L.e.    & _ _ _ _ _ _ ",
"_ _ _ _ 8.4X4X4X4X(         F.L.L.L.L.L.L.D.t t t L.u.t D.p.t t G L.L.L.L.L.L.L.e.    & _ _ _ _ _ _ ",
"_ _ _ =X2X4X4X4X4X1X;X-.<.;.K.L.L.L.L.L.L.H.<.<.<.L.u.t D.C.<.<.4.L.L.L.L.L.L.L.h.-.<.=._ _ _ _ _ _ ",
"_ _ _ :X4X4X4X4X4X4X1Xm n n J.L.L.L.L.L.L.K.k.k.k.L.u.t D.A.k.k.l.L.L.L.L.L.L.L.d.n n m _ _ _ _ _ _ ",
"_ _ _ :X4X4X4X4X4X4X,X      F.L.L.L.L.L.L.L.L.L.L.L.u.t D.L.L.L.L.L.L.L.L.L.L.L.e.    & _ _ _ _ _ _ ",
"_ _ _ :X4X4X4X4X4X4X,X      F r.L.L.L.L.L.L.L.L.L.G D t H y.L.L.L.L.L.L.L.L.L.5 #     & _ _ _ _ _ _ ",
"_ _ _  X=X4X4X4X4X%X{.      8 L n.n.n.n.n.n.n.n.n.t t t t P n.m.n.n.n.m.Z.m.i.X       & _ _ _ _ _ _ ",
"_ _ _ _ q.4X4X4X4X(           % t t t t t t t t t t t t t t t t t t t d 2.a           & _ _ _ _ _ _ ",
"_ _ _ _ 5.@X@X@X@XW           . + + * t t t t t t t t t t t t t t t B &.< @           & _ _ _ _ _ _ ",
"_ _ _ _ 4.(.(.(.(.U                 O w w w t t t t t t t t t d d f C #.              & _ _ _ _ _ _ ",
"_ _ _ _ 4.(.(.(.(.U                       . t t t t t t t t t *.2.2.2                 & _ _ _ _ _ _ ",
"_ _ _ _ } 6.6.6.6.R u u u u u i s , > > = > t t t t t t t t t N V *.z u u u u u u u u i ` ` _ _ _ _ ",
"_ _ _ _ _ _ _ _ _ _ _ _ _ _ ` *.2.g t t t t t t t t t t t t t t d ` _ _ _ _ _ _ _ _ _ _ _ _ _ _ _ _ "
};
