/* XPM */
static char *star_00[] = {
/* columns rows colors chars-per-pixel */
"50 50 69 1",
"  c #32313B",
". c #33323E",
"X c #353445",
"o c #353545",
"O c #363648",
"+ c #37374C",
"@ c #3B3840",
"# c #38384F",
"$ c #393A53",
"% c #3A3B55",
"& c #3B3C57",
"* c #3C3D5B",
"= c #3D3E5E",
"- c #3D3F60",
"; c #3F4165",
": c #3F4166",
"> c #4A4648",
", c #48454F",
"< c #57535A",
"1 c #404267",
"2 c #434463",
"3 c #41436B",
"4 c #41446C",
"5 c #42446E",
"6 c #434571",
"7 c #444774",
"8 c #605956",
"9 c #625B56",
"0 c #725958",
"q c #605A61",
"w c #74695F",
"e c #7A635B",
"r c #676061",
"t c #6F6762",
"y c #756B60",
"u c #7B7063",
"i c #827769",
"p c #8C8071",
"a c #9F9077",
"s c #DA987D",
"d c #B09E81",
"f c #B5A283",
"g c #B8A585",
"h c #BFAB89",
"j c #D0BA92",
"k c #F3A787",
"l c #F3B48F",
"z c #F3B691",
"x c #E1C99C",
"c c #E5CC9E",
"v c #F4C399",
"b c #F0CD9F",
"n c #F4CD9F",
"m c #E8CFA0",
"M c #F4D1A1",
"N c #F4D3A2",
"B c #F4D3A3",
"V c #F4D4A3",
"C c #F5DAA7",
"Z c #F5DAA8",
"A c #F5DCAB",
"S c #F6DEB2",
"D c #F6E1B7",
"F c #F8E8C9",
"G c #F9EACD",
"H c #FAEED7",
"J c #FBF3E3",
"K c #FDFAF4",
"L c gray100",
/* pixels */
"77777777777777777777777777777777777777777777777777",
"77777777777777777777777777777777777777777777777777",
"77777777777777777777777777777777777777777777777777",
"77777777777777777777777777777777777777777777777777",
"77777777777777777777777777777777777777777777777777",
"77777777777777777777777777777777777777777777777777",
"77777777777777777777777777777777777777777777777777",
"77777777777777777777777777777777777777777777777777",
"77777777777777777777777777777777777777777777777777",
"77777777777777777777777777777777777777777777777777",
"77777777777777777777777777777777777777777777777777",
"77777777777777777777777777777777777777777777777777",
"77777777777777777777777777777777777777777777777777",
"77777777777777777777777777777777777777777777777777",
"77777777777777777777#....7777777777777777777777777",
"77777777777777777777+@uuu=177777777777777777777777",
"77777777777777777777+>CCC $77777777777777777777777",
"77777777777777777777+>CCCjpo5777767777777777777777",
"7777777777777711;;;;<yCCCCf92;;;;;5777777777777777",
"77777777777777.     gCCCCCCC>     2777777777777777",
"777777777777-#dgggggxCCCCJFChgggggq#77777777777777",
"777777777777& cCCCCCCCCCCKHSZCCCCCu.77777777777777",
"777777777777& mCCCCCCCCCCCGLSCCCCCu.77777777777777",
"777777777777& mCCCCCCCCCCCDGACCCCCu.77777777777777",
"777777777777& mZCCCCCCCCCCCCCCCCCCu.77777777777777",
"77777777777777.uCCnkkkkvCCCCCCCCj =777777777777777",
"77777777777777$qacnkkkkvCCCCCCCCj =777777777777777",
"777777777777777= jnkkkkvCCCCCCCCj =777777777777777",
"77777777777777763,wMzkkvCCCCCCCCj =777777777777777",
"77777777777777777o9ZzkkvCCCCCCCCj =777777777777777",
"77777777777777777o9CzkkvCCCCCCCCj =777777777777777",
"77777777777777777o9CMnnVCCCCCCCCj =777777777777777",
"77777777777777777o9CCCCCCjjjbBCCj =777777777777777",
"77777777777777777o9CCCCCC   szCCj =777777777777777",
"77777777777777777o9CCCCdu===0euuy=3777777777777777",
"77777777777777777O9cmmmi.777o...O77777777777777777",
"7777777777777777771    *77777777777777777777777777",
"7777777777777777773&&&&177777777777777777777777777",
"77777777777777777777777777777777777777777777777777",
"77777777777777777777777777777777777777777777777777",
"77777777777777777777777777777777777777777777777777",
"77777777777777777777777777777777777777777777777777",
"77777777777777777777777777777777777777777777777777",
"77777777777777777777777777777777777777777777777777",
"77777777777777777777777777777777777777777777777777",
"77777777777777777777777777777777777777777777777777",
"77777777777777777777777777777777777777777777777777",
"77777777777777777777777777777777777777777777777777",
"77777777777777777777777777777777777777777777777777",
"77777777777777777777777777777777777777777777777777"
};
