/* XPM */
static char *wall[] = {
/* columns rows colors chars-per-pixel */
"50 50 45 1",
"  c #32313B",
". c #32313C",
"X c #32313D",
"o c #32323D",
"O c #32323E",
"+ c #33323F",
"@ c #333340",
"# c #333341",
"$ c #343342",
"% c #343443",
"& c #343444",
"* c #343545",
"= c #343546",
"- c #343647",
"; c #353648",
": c #35374A",
"> c #35384B",
", c #36384D",
"< c #36394F",
"1 c #373B53",
"2 c #383C56",
"3 c #393D59",
"4 c #393F5C",
"5 c #3A3F5D",
"6 c #3C3D5B",
"7 c #3A405F",
"8 c #3B4162",
"9 c #3B4264",
"0 c #3B4265",
"q c #3C4366",
"w c #3C4468",
"e c #3D4469",
"r c #3D456B",
"t c #3D466D",
"y c #3F4872",
"u c #3F4873",
"i c #404269",
"p c #444774",
"a c #404B79",
"s c #424E80",
"d c #475795",
"f c #485A9C",
"g c #4A5DA3",
"h c #4B5FA8",
"j c #4C60AA",
/* pixels */
"ppp$          ..    .              ..         @ppp",
"pi6eetteetette.>ettewtrrrrrrrrrret>.etettewttee2ip",
"p6 fjjjjjjjjjj@0jjjjjjjjjjjjjjjjjj0@jjjjjjjjjjf 5p",
"$efhjjjjjjjjjj@0jjjjjjjjjjjjjjjjjj0&jjjjjjjjjjjfe$",
" tjjjjjjjjjjjj@0jjjjjjjjjjjjjjjjjj0@jjjjjjjjjjjjt ",
" ejjjjjjjjjjjj@0jjjjjjjjjjjjjjjjjj0@jjjjjjjjjjjje.",
" -222222222222.&232222222222222222-.222222222222- ",
" &<<<<<>.;<<<<<<><<<<<<<<<<<<<<<<<><<<<<; ><<<<<- ",
" tjjjjjd sjjjjjjjjjjjjjjjjjjjjjjjjjjjjjja djjjjje ",
" ejjjjjd ajjjjjjjjjjjjjjjjjjjjjjjjjjjjjjs djjjjje ",
" tjjjjjd.sjjjjjjjjjjjjjjjjjjjjjjjjjjjjjjs.djjjjjt ",
" ejjjjjd.sjjjjjjjjjjjjjjjjjjjjjjjjjjjjjja.djjjjje ",
" <yyyyyw.7yyyyyyyyyyyyyyyyyyyyyyyyyyyyyy8 eyyyyy1 ",
" .                                      ..        ",
" wgggggggggggg@8gggggggggggggggggg8@gggggggggggge ",
" tjjjjjjjjjjjj@0jjjjjjjjjjjjjjjjjj0@jjjjjjjjjjjjt ",
" rjjjjjjjjjjjj@0jjjjjjjjjjjjjjjjjj0@jjjjjjjjjjjjt ",
" rjjjjjjjjjjjj@0jjjjjjjjjjjjjjjjjj0@jjjjjjjjjjjje ",
" rjjjjjjjjjjjj@0jjjjjjjjjjjjjjjjjj0@jjjjjjjjjjjjt ",
" rjjjjjjjjjjjj@0jjjjjjjjjjjjjjjjjj0@jjjjjjjjjjjje ",
" :777777877787.&777772777777277474-.474777474474; ",
" @:&::&& @:&:>;;:&;;::;;&:&;:::&;;;;;;;;@ --;;;;$ ",
" rjjjjjd.sjjjjjjjjjjjjjjjjjjjjjjjjjjjjjja.fjjjjjt ",
" rjjjjjd.ajjjjjjjjjjjjjjjjjjjjjjjjjjjjjjs.djjjjje ",
" rjjjjjf.sjjjjjjjjjjjjjjjjjjjjjjjjjjjjjja djjjjjt ",
" rjjjjjd.ajjjjjjjjjjjjjjjjjjjjjjjjjjjjjjs djjjjje ",
" 2uuuuuy.8uuuuauaauaaauauuauauaaaaaaaaaa0.taaaaa2 ",
"  ..@ ....@.@.@...........@....+         .     .  ",
".0ffgfffffffff@7ffffffffffffffffff8@ffffffffffff0 ",
" wjjjjjjjjjjjj@0jjjjjjjjjjjjjjjjjj0+jjjjjjjjjjjje ",
" tjjjjjjjjjjjj&0jjjjjjjjjjjjjjjjjj0@jjjjjjjjjjjjt ",
".wjjjjjjjjjjjj@0jjjjjjjjjjjjjjjjjj0@jjjjjjjjjjjje ",
" rjjjjjjjjjjjj@0jjjjjjjjjjjjjjjjjj0@jjjjjjjjjjjje ",
" rjjjjjjjjjjjj@0jjjjjjjjjjjjjjjjjj0@jjjjjjjjjjjjt ",
".>000000000000.>000000000000000000:.000000000000>.",
"..@@@@@@ .@@@@&@@&@&@@@@@&@@&@@@@@&@&@@@..@@@@@@. ",
" rjjjjjd.sjjjjjjjjjjjjjjjjjjjjjjjjjjjjjja djjjjjt ",
" rjjjjjd sjjjjjjjjjjjjjjjjjjjjjjjjjjjjjjs djjjjje ",
" rjjjjjd ajjjjjjjjjjjjjjjjjjjjjjjjjjjjjjs.djjjjjt ",
" rjjjjjd.sjjjjjjjjjjjjjjjjjjjjjjjjjjjjjjs.djjjjje ",
".2sassau.wasssssasssssassssasasasasasssaw.uassss2.",
".......  .  ..........  ....@.. +.. ...     ....  ",
".8dddddddddddd@7ddddddddddddddddfd7@dddddddddddd8 ",
" tjjjjjjjjjjjj@0jjjjjjjjjjjjjjjjjj0@jjjjjjjjjjjjt ",
" tjjjjjjjjjjjj@0jjjjjjjjjjjjjjjjjj8@jjjjjjjjjjjje ",
" wjjjjjjjjjjjj@0jjjjjjjjjjjjjjjjjj0@jjjjjjjjjjjjt.",
"-efjjjjjjjjjjj@0jjjjjjjjjjjjjjjjjj0@jjjjjjjjjjjfe$",
"p2 fjjjjjjjjjj@0jjjjjjjjjjjjjjjjjj0@jjjjjjjjjjf 5p",
"pi6eetetetetet.>tetetetwtetwttwttt>.twttwtwtwte2ip",
"ppp$                                      .   @ppp"
};
