/* XPM */
static char *player_up[] = {
/* columns rows colors chars-per-pixel */
"50 50 175 2",
"   c #32313B",
".  c #333341",
"X  c #343745",
"o  c #363649",
"O  c #3B4162",
"+  c #3C4A62",
"@  c #444774",
"#  c #474775",
"$  c #444875",
"%  c #454875",
"&  c #444977",
"*  c #414B7A",
"=  c #444978",
"-  c #454C7B",
";  c #464C78",
":  c #454C7F",
">  c #4C4877",
",  c #4B4E79",
"<  c #4C4F7A",
"1  c #405470",
"2  c #42517C",
"3  c #415878",
"4  c #48517C",
"5  c #4D507B",
"6  c #4F527C",
"7  c #514F7E",
"8  c #57517F",
"9  c #424E80",
"0  c #47518B",
"q  c #48538F",
"w  c #4C5982",
"e  c #4E5D86",
"r  c #495695",
"t  c #4A5D90",
"y  c #554F81",
"u  c #565082",
"i  c #5B5E85",
"p  c #4B5EA6",
"a  c #47678E",
"s  c #4D669C",
"d  c #577397",
"f  c #587499",
"g  c #59779B",
"h  c #4C60AA",
"j  c #4E6AA0",
"k  c #4E6BA2",
"l  c #4E6AA8",
"z  c #4E68B1",
"x  c #5174AD",
"c  c #5174BD",
"v  c #5278B2",
"b  c #547CB9",
"n  c #547DBA",
"m  c #547FBB",
"M  c #614C80",
"N  c #6D4E86",
"B  c #765089",
"V  c #7E518D",
"C  c #67698E",
"Z  c #77799A",
"A  c #7C7A9C",
"S  c #2CE8F5",
"D  c #5E83A4",
"F  c #5581BE",
"G  c #5A83B7",
"H  c #7E809F",
"J  c #6087A8",
"K  c #638FAE",
"L  c #6490AF",
"P  c #699AB7",
"I  c #5580C8",
"U  c #5990D1",
"Y  c #5993D1",
"T  c #5993D2",
"R  c #5993D3",
"E  c #5B95D8",
"W  c #5C97DC",
"Q  c #5C98DF",
"!  c #5D9BDF",
"~  c #5D9CE3",
"^  c #5E9FE5",
"/  c #5BA5E7",
"(  c #5EA1E7",
")  c #5FA1E7",
"_  c #5FA2E7",
"`  c #5FA6E7",
"'  c #5FADE7",
"]  c #58A9E8",
"[  c #52B2EA",
"{  c #7580C9",
"}  c #619CE3",
"|  c #659CE3",
" . c #70ACC5",
".. c #71ADC7",
"X. c #64A3E7",
"o. c #6EABE9",
"O. c #6FAAE9",
"+. c #69B5EB",
"@. c #70ABE9",
"#. c #73ACEA",
"$. c #4FD2EB",
"%. c #5FC1E7",
"&. c #5FC4E7",
"*. c #5FC9E7",
"=. c #5AEDF7",
"-. c #7CC7DC",
";. c #875391",
":. c #8B60AC",
">. c #837EA0",
",. c #CA60AE",
"<. c #C364B1",
"1. c #C766B2",
"2. c #CD69B3",
"3. c #8183A1",
"4. c #8587A4",
"5. c #8A8CA8",
"6. c #A0A1B8",
"7. c #A1A3B9",
"8. c #A6A8BD",
"9. c #9480CA",
"0. c #91B3DD",
"q. c #82B5EC",
"w. c #87B8ED",
"e. c #8DBCEE",
"r. c #96B5E3",
"t. c #9DBDEB",
"y. c #A393C5",
"u. c #A79DCC",
"i. c #B08DC4",
"p. c #AEAFC3",
"a. c #A6B3D8",
"s. c #A8B9DE",
"d. c #B5B7C8",
"f. c #80D0E3",
"g. c #82D4E6",
"h. c #84D8EA",
"j. c #85DAEB",
"k. c #96C1EF",
"l. c #97C2EF",
"z. c #97D4EF",
"x. c #93DAEE",
"c. c #9CD8F0",
"v. c #88F2F9",
"b. c #9CE6F3",
"n. c #95F3FA",
"m. c #A3C9F1",
"M. c #A5CAF1",
"N. c #AACDF2",
"B. c #AFD0F3",
"V. c #B6D4F4",
"C. c #BAD6F4",
"Z. c #DD9BCC",
"A. c #D5AAD4",
"S. c #DFACD5",
"D. c #E4AFD6",
"F. c #C4C5D3",
"G. c #C6C7D5",
"H. c #D0D1DC",
"J. c #C0DAF5",
"K. c #DBDCE4",
"L. c #CDE1F7",
"P. c #D8E3EB",
"I. c #D7F1F9",
"U. c #E7E8ED",
"Y. c #E1EDFA",
"T. c #EDEDF1",
"R. c #E0F5FA",
"E. c #EBF3FC",
"W. c #F8EBF4",
"Q. c #F3F3F6",
"!. c #F5F9FD",
"~. c #FBF5F9",
"^. c #FBFBFC",
"/. c #FEFEFE",
"(. c gray100",
/* pixels */
"@ @ @ @ @ @ @ @ @ @ @ @ @ @ @ @ @ @ @ @ @ @ @ @ @ @ @ @ @ @ @ @ @ @ @ @ @ @ @ @ @ @ @ @ @ @ @ @ @ @ ",
"@ @ @ @ @ @ @ @ @ @ @ @ @ @ @ @ @ @ @ @ @ @ @ @ @ @ @ @ @ @ @ @ @ @ @ @ @ @ @ @ @ @ @ @ @ @ @ @ @ @ ",
"@ @ @ @ @ @ @ @ @ @ @ @ @ @ @ @ @ @ @ @ @ @ @ @ @ @ @ @ @ @ @ @ @ @ @ @ @ @ @ @ @ @ @ @ @ @ @ @ @ @ ",
"@ @ @ @ @ @ @ @ @ @ @ @ @ @ @ @ @ @ @ @ @ @ @ 6.U.-.K @ @ @ @ @ @ @ @ @ @ @ @ @ @ @ @ @ @ @ @ @ @ @ ",
"@ @ @ @ @ @ @ @ @ @ @ @ @ @ @ @ @ @ @ @ @ , H G.(.j...f ; @ @ @ @ @ @ @ @ @ @ @ @ @ @ @ @ @ @ @ @ @ ",
"@ @ @ @ @ @ @ @ @ @ @ @ @ @ @ @ @ @ @ @ @ i (.(.(.j.j.j.w @ @ @ @ @ @ @ @ @ @ @ @ @ @ @ @ @ @ @ @ @ ",
"@ @ @ @ @ @ @ @ @ @ @ @ @ @ @ @ @ @ @ @ @ i (.(.(.j.j.j.w @ @ @ @ @ @ @ @ @ @ @ @ @ @ @ @ @ @ @ @ @ ",
"@ @ @ @ @ @ @ @ @ @ @ @ @ @ @ @ @ @ @ @ @ i (.(.(.j.j.j.w @ @ @ @ @ @ @ @ @ @ @ @ @ @ @ @ @ @ @ @ @ ",
"@ @ @ @ @ @ @ @ @ @ @ @ @ @ @ @ @ @ @ @ @ i (.(.(.j.j.j.w @ @ @ @ @ @ @ @ @ @ @ @ @ @ @ @ @ @ @ @ @ ",
"@ @ @ @ @ @ @ @ @ @ @ @ @ @ @ @ @ @ @ @ @ 8 Z.Z.Z.i.i.i.7 @ @ @ @ @ @ @ @ @ @ @ @ @ @ @ @ @ @ @ @ @ ",
"@ @ @ @ @ @ @ @ @ @ @ @ @ @ @ @ @ @ $ - - y <.<.<.<.1.2.y ; ; & @ @ @ @ @ @ @ @ @ @ 5 5 @ @ @ @ @ @ ",
"@ @ @ @ @ @ @ @ @ @ @ @ @ @ @ @ @ @ t ) ) ) ) ) ) ) M.(.#.) ) t @ @ @ @ @ @ @ @ @ @ K.H.@ @ @ @ @ @ ",
"@ @ @ @ @ @ @ @ @ @ @ @ @ @ @ @ @ k m ) ) ) ) ) ) ) q.N.N.l.X.m k @ @ @ @ @ @ @ C 6.T.P.L e $ @ @ @ ",
"@ @ @ @ @ @ @ @ @ @ @ @ @ @ @ @ @ U ) ) ) ) ) ) ) ) X.) E.L.) ) U & @ @ @ @ @ @ 5.(.(.R.j.f @ @ @ @ ",
"@ @ @ @ @ @ @ @ @ @ @ @ @ @ @ s Q ) ) ) ) ) ) ) ) ) ) ) E.L.) ) ) W s @ @ @ @ @ 5.(.(.R.j.f @ @ @ @ ",
"@ @ @ @ @ @ @ @ @ @ @ @ @ @ s n ) ) ) ) ) ) ) ) ) ) ) ) V.m.) ) ) ) n s @ @ @ 4.d.(.(.R.j.P f @ @ @ ",
"@ @ @ @ @ @ @ @ @ @ @ @ @ @ ~ ) ) ) ) ) ) ) ) ) ) ) ) ) ) ) ) ) ) ) ) Q @ @ @ Q.(.(.(.R.j.j.-.@ @ @ ",
"@ @ @ @ @ @ @ @ @ @ @ @ k U ) ) ) ) ) ) ) ) ) ) ) ) ) ) ) ) ) ) ) ) ) ) U k @ Q.(.(.(.R.j.j.-.@ @ @ ",
"@ @ @ @ @ @ @ @ @ @ @ @ x ) ) ) ) ) ) ) ) ) ) ) ) ) ) ) ) ) ) ) ) ) ) ) ) x @ Q.(.(.(.R.j.j.-.@ @ @ ",
"@ @ @ @ @ @ @ @ @ @ @ @ x ) ) ) ) ) ) ) ) ) ) ) ) ) ) ) ) ) ) ) ) ) ) ) ) x @ Q.(.(.(.R.j.j.-.@ @ @ ",
"@ @ @ @ @ @ @ @ @ @ @ @ x ) ) ) ) ) ) ) ) ) ) ) ) ) ) ) ) ) ) ) ) ) ) ) ) 0.F.^.(.(.(.R.j.j.g. .d @ ",
"@ @ @ @ @ @ @ @ @ @ @ i G ] ) ) ) ) X.#.#.#.) ) ) ) ) ) ) ) / o.o.) ) ) ) N.(.(.(.(.(.R.j.j.j.j.J @ ",
"@ @ @ @ @ @ @ @ @ @ 6 (.n.S / ) ) ) w.(.(.E.) ) ) ) ) ) ) ' *.I.Y.) ) ) ) N.(.(.(.(.(.R.j.j.j.j.J @ ",
"@ @ @ @ @ @ @ @ @ @ 4 v.=.S / ) ) ) +.v.b.c.) ) ) ) ) ) ) ' *.x.z.) ) ) ) V.(.(.(.(.(.R.j.j.j.j.J @ ",
"@ @ @ @ @ @ @ @ @ @ 2 S S S / ) ) ) [ S $.&.) ) ) ) ) ) ) ' *.*.%.) ) ) ) N.(.(.(.(.(.R.j.j.j.j.J @ ",
"@ @ @ @ @ @ @ @ @ @ - ) ) ) ) ) ) ) ) ) ) ) ) ) ) ) ) ) ) ) ) ) ) ) ) ) ~ V.(.(.(.(.(.R.j.j.j.j.J @ ",
"@ @ @ @ @ @ @ @ @ @ ; ) ) ) ) ) ) ) ) ) ) ) ) ) ) ) ) ) ) ) ) ) ) ) ) ) ) V.(.(.(.(.(.R.j.j.j.j.J @ ",
"@ @ @ @ @ @ @ @ @ @ - ) ) ) ) ) ) ) ) ) ) ) ) ) ) ) ) ) ) ) ) ) ) ) ) ) ) N.(.(.(.(.(.R.j.j.j.j.J @ ",
"@ @ @ @ @ @ @ @ @ @ = z z z z z z z z z z z z z z z z z z z z z z z z z z a.(.(.(.(.(.R.j.j.j.j.J @ ",
"@ @ @ @ @ @ @ @ @ @ = c c c c c c c c c c c c c c c c c c c c c c c c c c s.(.(.(.(.(.R.j.j.j.j.J @ ",
"@ @ @ @ @ @ @ @ @ @ ; ) ) ) ) ) ) ) ) ) ) ) ) ) ) ) ) ) ) ) ) ) ) ) ) ) ) N.(.(.(.(.(.R.j.j.j.j.J @ ",
"@ @ @ @ @ @ @ @ @ @ - ) ) ) ) ) ) ) ) ) ) ) ) ) ) ) ) ) ) ) ) ) ) ) ) ) ) V.(.(.(.(.(.R.j.j.j.j.J @ ",
"@ @ @ @ @ @ @ @ @ @ ; ) ) ) ) ) ) ) ) ) ) ) ) ) ) ) ) ) ) ) ) ) ) ) ) ) ) N.(.(.(.(.(.R.j.j.j.j.J @ ",
"@ @ @ @ @ @ @ @ @ @ = ) ) ) ) ) ) ) ) ) ) ) ) ) ) ) ) ) ) ) ) ) ) ) ) ) ^ V.(.(.(.(.(.R.j.j.j.j.J @ ",
"@ @ @ @ @ @ @ @ @ k F ) ) ) ) ) ) ) ) ) ) ) ) ) ) ) ) ) ) ) ) ) ) ) ) ) ) N.(.(.(.(.(.R.j.j.j.j.J @ ",
"@ @ @ @ @ @ @ @ @ m ) ) ) ) ) ) ) ) ) ) ) ) ) ) ) ) ) ) ) ) ) ) ) ) ) ) ) M.!.(.(.(.(.R.j.j.j.f.D @ ",
"@ @ @ @ @ @ @ @ @ m ) ) ) ) ) ) ^ ( ) ) ) ) ) ) ) ) ) ) ) ) ) ) ) ) ) ) ) ) ^ !.(.(.(.R.j.j.-.@ @ @ ",
"@ @ @ @ @ @ @ @ @ l I I I I I I I I I I I I I I I I I I I I I I I I I I I { 9.D.D.D.D.A.u.u.y.;.M @ ",
"@ @ @ @ @ @ @ @ @ r h h h h h h h h h p h h p p h h h h h h h h h h h h h :.,.,.,.,.,.,.,.,.,.,.V @ ",
"@ @ @ @ @ @ @ @ @ b ~ ~ ~ ~ ~ ~ ~ ~ ~ ~ ^ ^ ~ ~ ~ ~ ~ ~ ~ ~ ~ ~ ~ ~ ~ ~ ~ } | | t.~.~.~.~.>.> > & @ ",
"@ @ @ @ @ @ @ @ @ m ) ) ) ) ) ) ) ) ) ) ) ) ) ) ) ) ) ) ) ) ) ) ) ) ) ) ) ) ) l.J.(.(.(.(.p.3.@ @ @ ",
"@ @ @ @ @ @ @ @ @ m ) ) ) ) ) ) ) ) ) ) ) ) ) ) ) ) ) ) ) ) ) ) ) ) ) ) ) ) ) !.(.(.(.(.(.(.U.@ @ @ ",
"@ @ @ @ @ @ @ @ @ m ) ) ) ) ) ) ) ) ) ) ) ) ) ) ) ) ) ) ) ) ) ) ) ) ) ) ) ) ) !.(.(.(.(.(.(.U.@ @ @ ",
"@ @ @ @ @ @ @ @ @ m ) ) ) ) ) ) ) ) ) ) ) ) ) ) ) ) ) ) ) ) ) ) ) ) ) ) ) ) ) !.(.(.(.(.(.(.U.@ @ @ ",
"@ @ @ @ @ @ @ @ @ m ^ ^ ) ) ) ) ^ ^ ) ) ) ) ) ^ ) ) ) ) ^ } ( ( ) ) ) ) ) ) ) !.(.(.(.(.(.(.U.@ @ @ ",
"@ @ @ @ @ @ @ @ @ F ^ ^ ) ) w + 1 1 a ) ) ) ) ^ ) ) ) ) ^ ^ ( ( ) ) ) ) ) ) ) e.C.(.(.(.(.8.Z @ @ @ ",
"@ @ @ @ @ @ @ @ @ v W W W ~ X       + E W E E E E E W W E E W U T T U R Q W E E r.W.W.W.W.A @ @ @ @ ",
"@ @ @ @ @ @ @ @ @ @ * + q h X       o @ @ @ @ @ @ @ @ @ @ @ @ o       . p q @ @ B ,.,.,.,.N @ @ @ @ ",
"@ @ @ @ @ @ @ @ @ @ @ @ 9 0 * O     o @ @ @ @ @ @ @ @ @ @ @ @ o     O * 0 - @ @ B ,.,.,.,.N @ @ @ @ ",
"@ @ @ @ @ @ @ @ @ @ @ @ @ @ p 9     o @ @ @ @ @ @ @ @ @ @ @ @ o     9 p $ @ @ @ B ,.,.,.,.N @ @ @ @ "
};
