/* XPM */
static char *player_right[] = {
/* columns rows colors chars-per-pixel */
"50 50 181 2",
"   c #32313B",
".  c #333342",
"X  c #353648",
"o  c #343845",
"O  c #36394E",
"+  c #3D3C45",
"@  c #3A3B56",
"#  c #3B3D5B",
"$  c #3E4062",
"%  c #3E476F",
"&  c #3D4D66",
"*  c #3F4872",
"=  c #42424C",
"-  c #4D4C54",
";  c #56555D",
":  c #404267",
">  c #40436A",
",  c #444774",
"<  c #444977",
"1  c #444C7A",
"2  c #4A4977",
"3  c #4C4F7A",
"4  c #445065",
"5  c #405471",
"6  c #435C7E",
"7  c #4C517C",
"8  c #554A7B",
"9  c #594B7D",
"0  c #5A5961",
"q  c #596579",
"w  c #626269",
"e  c #68676F",
"r  c #6E6E75",
"t  c #706F76",
"y  c #727178",
"u  c #424E80",
"i  c #465086",
"p  c #46548B",
"a  c #465B84",
"s  c #4A5683",
"d  c #495789",
"f  c #4C5A84",
"g  c #475693",
"h  c #475993",
"j  c #495797",
"k  c #5A5C84",
"l  c #48688F",
"z  c #4C6397",
"x  c #4E689F",
"c  c #4B709B",
"v  c #5E6087",
"b  c #546B91",
"n  c #5E708A",
"m  c #587499",
"M  c #4C60AA",
"N  c #4E6EAE",
"B  c #4D73A4",
"V  c #5769AF",
"C  c #506EB7",
"Z  c #5174AD",
"A  c #5C7EA0",
"S  c #5070B3",
"D  c #5173B8",
"F  c #507EB1",
"G  c #547FBB",
"H  c #614C80",
"J  c #6D4E86",
"K  c #765089",
"L  c #735E8E",
"P  c #7E518D",
"I  c #606C80",
"U  c #686A8F",
"Y  c #67758A",
"T  c #717496",
"R  c #5180B5",
"E  c #5385BC",
"W  c #5B80BE",
"Q  c #7D809F",
"!  c #6087A8",
"~  c #688BBE",
"^  c #6899B6",
"/  c #7E81A1",
"(  c #5683CB",
")  c #568CC6",
"_  c #5788D0",
"`  c #5A92D3",
"'  c #5B95D9",
"]  c #5C99DE",
"[  c #5D9DE2",
"{  c #5FA1E7",
"}  c #5FABE7",
"|  c #5FB2E7",
" . c #5FBCE7",
".. c #6787C0",
"X. c #7580C9",
"o. c #639CE3",
"O. c #79BFD5",
"+. c #61A2E7",
"@. c #67A6E8",
"#. c #69A6E8",
"$. c #7BB1EB",
"%. c #5FC2E7",
"&. c #5FC9E7",
"*. c #7CC7DC",
"=. c #7ECCDF",
"-. c #7FCEE1",
";. c #875391",
":. c #8B60AC",
">. c #8174A9",
",. c #A470A6",
"<. c #CA60AE",
"1. c #828187",
"2. c #8385A3",
"3. c #8A8CA8",
"4. c #9597B0",
"5. c #9B9DB5",
"6. c #A5A4A9",
"7. c #A2A4BA",
"8. c #B2B1B5",
"9. c #8788D1",
"0. c #8391C4",
"q. c #9480CA",
"w. c #91B3DD",
"e. c #87B8ED",
"r. c #B292CF",
"t. c #ADAEC2",
"y. c #A5AFD4",
"u. c #ABB4D7",
"i. c #B2A2D8",
"p. c #B7BACA",
"a. c #BEBEC1",
"s. c #BABBCC",
"d. c #81C1D9",
"f. c #91C3DF",
"g. c #81D2E5",
"h. c #85DAEB",
"j. c #89D2E7",
"k. c #9BC4F0",
"l. c #BBC3DF",
"z. c #AAC1E5",
"x. c #ADCBEF",
"c. c #A0C7F0",
"v. c #A5CCF1",
"b. c #AED0F2",
"n. c #BFCFE5",
"m. c #B1D8F3",
"M. c #B8D5F4",
"N. c #BFD9F5",
"B. c #BFE9F5",
"V. c #DA91C7",
"C. c #E4AFD6",
"Z. c #CBCBCE",
"A. c #C4C5D3",
"S. c #D0D1DC",
"D. c #D8D8DA",
"F. c #C2DAF4",
"G. c #DEDEE6",
"H. c #CFE3F7",
"J. c #C8ECF6",
"K. c #DDE1EF",
"L. c #D0E7F8",
"P. c #DFE7F4",
"I. c #DFECF5",
"U. c #D9EDF9",
"Y. c #EBC3E0",
"T. c #E5E5E6",
"R. c #E7E8ED",
"E. c #EAEAED",
"W. c #E0EDFA",
"Q. c #EBECF3",
"!. c #E0F5FA",
"~. c #EEF0F7",
"^. c #EBF3FC",
"/. c #EBF8FC",
"(. c #F5E1EF",
"). c #F2EFF8",
"_. c #F3F3F6",
"`. c #F6F6F9",
"'. c #F5F9FD",
"]. c #FBF5F9",
"[. c #FEFEFE",
/* pixels */
", , , , , , , , , , , , , , , , , , , , , , , , , , , , , , , , , , , , , , , , , , , , , , , , , , ",
", , , , , , , , , , , , , , , , , , , , , , , b ! 4.T , , , , , , , , , , , , , , , , , , , , , , , ",
", , , , , , , , , , , , , , , , , , , , , , , ^ h.[.8.< , , , , , , , , , , , , , , , , , , , , , , ",
", , , , , , , , , , , , , , , , , , , , , s *.g.h.[._.R.k , , , , , , , , , , , , , , , , , , , , , ",
", , , , , , , , , , , , , , , , , , , , , f h.h.h.[.[.[.k , , , , , , , , , , , , , , , , , , , , , ",
", , , , , , , , , , , , , , , , , , , , , s h.h.h.[.[.[.k , , , , , , , , , , , , , , , , , , , , , ",
", , , , , , , , , , , , , , , , , , , , , f h.h.h.[.[.[.k , , , , , , , , , , , , , , , , , , , , , ",
", , , , , , , , , , , , , , , , , , , , , 7 f.f.f.(.(.(.k , , , , , , , , , , , , , , , , , , , , , ",
", , , , , , , , , , , , , , , , , , , , , 8 <.<.<.<.<.<.8 , , , , , , , , , , , , , , , , , , , , , ",
", , , , , , 5.7., , , , , , , , , < i G G W 9.9.9.9.i.Y...E G d , , , , , , , , , , , , , , , , , , ",
", , , , < 7 S.G.7 1 , , , , , , , 1 z { { { { { [ { k.'.$.@.@.z 1 , , , , , , , , , , , , , , , , , ",
", , , , m h.!.[.[.3., , , , , , , ` { { { { { { { { +.{ ^.[.[.e.` , , , , , , , , , , , , , , , , , ",
", , , , m h.!.[.[.3., , , , , d Z ] +.[ { { { { { { { { ^.[.[.e.] Z d , , , , , , , , , , , , , , , ",
", , , , m h.!.[.[.3., , , , , x +.[ { { { { { { { { { { ^.[.[.e.{ { x , , , , , , , , , , , , , , , ",
", , , O.g.h.!.[.[.`.R., , , ' [ { { { { { { { { { { { { @.@.@.+.{ { [ ' , , , , , , , , , , , , , , ",
", , , *.h.h.!.[.[.[._., d x [ +.{ { { { { { { { { { { { { { { [ { +.[ [ x d , , , , , , , , , , , , ",
", , , *.h.h.!.[.[.[._., Z { { { { { { { { { { { { { { { { { { { { [ { { { S , , , , , , , , , , , , ",
", , , *.h.h.!.[.[.[._., Z { { { { { { { { { { { { { { { { { { { { { { { { Z , , , , , , , , , , , , ",
", s b =.h.h.!.[.[.[.`.T ~ { { { { { { { [ { { { { { { { { { { { { { { { { Z < , , , , , , , , , , , ",
", ! h.h.h.h.!.[.[.[.[.[.b.{ { { { { { { { { { { { { { { { { { { { { { { { Z , , , , , , , , , , , , ",
", ! h.h.h.h.!.[.[.[.[.[.b.{ { { { M.m. .} { { { { { { { F.b. .} { { { { +.w.A.7 , , , , , , , , , , ",
", ! h.h.h.h.!.[.[.[.[.[.b.{ { { { L.J.&.} { { { { { { { U.B.&.} { { { { +.v./.7 , , , , , , , , , , ",
", ! h.h.h.h.!.[.[.[.[.[.b.{ { { { %.&.&.} { { { { { { { %.&.&.} { { { { [  .&.1 , , , , , , , , , , ",
", ! h.h.h.h.!.[.[.[.[.[.b.{ { { { } | | } { { { { { { { } | | { { { { { { } | 1 , , , , , , , , , , ",
", ! h.h.h.h.!.[.[.[.[.[.b.[ { { { { { { { { { { { { { { { { { { { { { { { { { 1 , , , , , , , , , , ",
", ! h.h.h.h.!.[.[.[.[.[.b.[ { { { { { { { { { { { { { { { { { { { [ { { { { [ 1 , , , , , , , , , , ",
", ! h.h.h.h.!.[.[.[.[.[.z._ ( ( ( ( ( ( ( ( ( ( _ c c c c c c c B ( ( ( _ ( ( 1 , , , , , , , , , , ",
", ! h.h.h.h.!.[.[.[.[.[.y.M M M M M M M M M M N M               @ M M M M M M 1 , , , , , , , , , , ",
", ! h.h.h.h.!.[.[.[.[.[.x.] ] ' [ [ ] ] * O + o o                 X X X O * M < , , , , , , , , , , ",
", ! h.h.h.h.!.[.[.[.[.[.b.{ { { { { ' F y t y y y y ;               0 y y Q 0./ U , , , , , , , , , ",
", ! h.h.h.h.!.[.[.[.[.[.b.{ { { { { E   l.].[.[.[.[.6.              8.[.[.[.[.[.p., , , , , , , , , ",
", ! h.h.h.h.!.[.[.[.[.[.b.{ { { { l q Z.E.[.[.[.[.[.R.Z.=       - Z.E.[.[.[.[.[.Q.S.v , , , , , , , ",
", ! h.h.h.h.!.[.[.[.[.[.b.{ { { { q 1.[.[.[.[.[.[.D.D.D.e -   - y D.D.D.[.[.[.[.[.[.2.v , , , , , , ",
", ! h.h.h.h.!.[.[.[.[.[.b.{ { { { W.[.[.[.[.[.[.[.      T.a.  Z.D.    + [.[.[.[.[.[.[.S., , , , , , ",
"< f m g.h.h.!.[.[.[.[.k.$.{ { { [ W.[.[.[.[.[.[.[.      T.a.  Z.D.    + [.[.[.[.[.[.[.S., , , , , , ",
", 2 2 d.j.j.I.].].].Q.o.[ [ [ [ [ W.[.[.[.[.[.[.[.. . . T.a.  Z.D.. . = [.[.[.[.[.[.[.S., , , , , , ",
", P <.<.<.<.<.<.<.<.<.<.:.M M M M K.[.[.[.[.[.[.[.M M M Q.a.  Z.P.M M V [.[.[.[.[.[.[.S., , , , , , ",
", H ;.;.,.C.C.C.C.r.q.q.X.( W ( ( P.[.[.[.[.[.[.[.y.y.y._.a.  Z.Q.y.y.u.[.[.[.[.[.[.[.S., , , , , , ",
", , , , Q [.[.[.[.k.{ { { { [ [ { W.[.[.[.[.[.[.[.[.[.[.[.a.  Z.[.[.[.[.[.[.[.[.[.[.[.S., , , , , , ",
", , , G.`.[.[.[.[.'.^.{ { { { { [ 4 r [.[.[.[.[.[.[.[.[.; +   o w [.[.[.[.[.[.[.[.[.T 3 , , , , , , ",
", , , R.[.[.[.[.[.[.'.{ { { { { { l n 8.8.8.8.8.8.8.8.8.=       - 8.8.8.8.p.l.F.n.p.k , , , , , , , ",
", , , R.[.[.[.[.[.[.'.{ { { { { { { E                                     , M [ G , , , , , , , , , ",
", , , R.[.[.[.[.[.[.'.{ { { { { { { [ ) ) R                           . g D ] C p o > , , , , , , , ",
", , > l.G.[.[.[.[.^.H.[ { { { { { { [ [ { ' & & &                   O # D _ { h %   > , , , , , , , ",
", , , , / [.[.[.[.k.{ { { { { { { { { +.{ [ +.[ [                   u M { { { o     > , , , , , , , ",
", , , , L V.V.V.V.>.z z a * 6 & 5 N C z z z z z z $ $ $ $ $ $ $ # $ < p z d 5       : , , , , , , , ",
", , , , J <.<.<.<.K , , @       X g j , < , , , , , , , , , , , , , , , , @       . > , , , , , , , ",
", , , , J <.<.<.<.K , , @     & M 1 , , , , , , , , , , , , , , , , , , , @     O , , , , , , , , , ",
", , , , 8 ;.P P P 9 , , $ # # > p 1 , , , , , , , , , , , , , , , , , , , $ # # $ , , , , , , , , , ",
", , , , , , < > , , , , , < , , , , , , , , , , , , , , , , , , , , , , , , , , , , , , , , , , , , "
};
