/* XPM */
static char *player_down[] = {
/* columns rows colors chars-per-pixel */
"50 50 191 2",
"   c #32313B",
".  c #343444",
"X  c #353648",
"o  c #363B4E",
"O  c #3E3444",
"+  c #3C3B44",
"@  c #373D51",
"#  c #383C56",
"$  c #3A3F5D",
"%  c #3A405F",
"&  c #3D456A",
"*  c #3E4C6E",
"=  c #3F4771",
"-  c #3F526E",
";  c #47374B",
":  c #4E3950",
">  c #47464F",
",  c #404451",
"<  c #53525B",
"1  c #58575F",
"2  c #444774",
"3  c #454976",
"4  c #454B7A",
"5  c #4A4977",
"6  c #435B7C",
"7  c #4B527D",
"8  c #504966",
"9  c #554A7B",
"0  c #5A5961",
"q  c #585C68",
"w  c #74456D",
"e  c #626168",
"r  c #76767C",
"t  c #475283",
"y  c #45538B",
"u  c #445F82",
"i  c #495683",
"p  c #495789",
"a  c #4C5A83",
"s  c #4A5C8F",
"d  c #4A5D90",
"f  c #495B9D",
"g  c #555881",
"h  c #5B5188",
"j  c #5B5D85",
"k  c #4A5DA3",
"l  c #456286",
"z  c #4F6088",
"x  c #486691",
"c  c #4C649B",
"v  c #496A93",
"b  c #4E689F",
"n  c #546B91",
"m  c #5E6993",
"M  c #587499",
"N  c #4C60AA",
"B  c #4F6EA6",
"V  c #4F6CAD",
"C  c #4F6BB4",
"Z  c #4E77A6",
"A  c #5174AD",
"S  c #5C7EA0",
"D  c #5173B1",
"F  c #507EB1",
"G  c #547FBB",
"H  c #5975B1",
"J  c #614C80",
"K  c #6D4E86",
"L  c #735E8E",
"P  c #7E518D",
"I  c #64678C",
"U  c #61639C",
"Y  c #6C7B91",
"T  c #727C8D",
"R  c #727596",
"E  c #6463AD",
"W  c #637BB2",
"Q  c #6C7BB4",
"!  c #5378C1",
"~  c #35ABC4",
"^  c #2FE6F4",
"/  c #5382BC",
"(  c #7E809F",
")  c #6087A8",
"_  c #6899B6",
"`  c #4298C0",
"'  c #5684C3",
"]  c #5580C8",
"[  c #558AC4",
"{  c #588ACA",
"}  c #5788D0",
"|  c #598CD3",
" . c #5A91D6",
".. c #5B96DA",
"X. c #5B99DA",
"o. c #5D9CE1",
"O. c #5FA1E7",
"+. c #5FABE7",
"@. c #5FB6E7",
"#. c #7394DC",
"$. c #7990D8",
"%. c #649DE4",
"&. c #699AE1",
"*. c #74B5CD",
"=. c #79BFD5",
"-. c #64A4E7",
";. c #66A5E8",
":. c #69A6E8",
">. c #72ACE9",
",. c #7CB2EB",
"<. c #44C7EE",
"1. c #5FC2E7",
"2. c #5FC9E7",
"3. c #7CC7DC",
"4. c #7ECBDE",
"5. c #7FCEE1",
"6. c #875391",
"7. c #A45491",
"8. c #AD5798",
"9. c #A470A6",
"0. c #CA60AE",
"q. c #86868C",
"w. c #8C8B91",
"e. c #96969B",
"r. c #8587A4",
"t. c #8A8CA8",
"y. c #9B9DB5",
"u. c #A5A4A9",
"i. c #A2A4BA",
"p. c #B2B1B5",
"a. c #8788D1",
"s. c #8F9BC9",
"d. c #8D9BDB",
"f. c #9480CA",
"g. c #83B2E7",
"h. c #85B7EC",
"j. c #87B8ED",
"k. c #8CBBED",
"l. c #B593CF",
"z. c #ADAEC2",
"x. c #A4AED4",
"c. c #ADB0C5",
"v. c #BEBEC1",
"b. c #BBBCCD",
"n. c #81C1D9",
"m. c #82D3E5",
"M. c #85DAEB",
"N. c #89D2E7",
"B. c #9BC4F0",
"V. c #9CCCF0",
"C. c #ACC6EA",
"Z. c #A3CCF1",
"A. c #AACDF2",
"S. c #AFD0F3",
"D. c #BCC4E0",
"F. c #BECCE7",
"G. c #B9D5F4",
"H. c #DA91C7",
"J. c #CBB9C8",
"K. c #DCBED5",
"L. c #E4AFD6",
"P. c #CBCBCE",
"I. c #D0D2DD",
"U. c #C6CCE2",
"Y. c #C3DBF6",
"T. c #D7CFEB",
"R. c #D2D7E9",
"E. c #DEDEE6",
"W. c #DCDFEE",
"Q. c #D4DFF1",
"!. c #CFE3F7",
"~. c #CDEEF7",
"^. c #D7E7F9",
"/. c #DFECF5",
"(. c #D7F1F9",
"). c #E0C0D8",
"_. c #EBC3E0",
"`. c #E5E5E6",
"'. c #E7E8ED",
"]. c #E9E9EE",
"[. c #E2EEFA",
"{. c #E8EAF3",
"}. c #EAEFF8",
"|. c #E0F5FA",
" X c #EBF3FC",
".X c #F2EFF8",
"XX c #F2F2F4",
"oX c #F4F6F9",
"OX c #F5F9FD",
"+X c #FBF5F9",
"@X c #FEFEFE",
/* pixels */
"2 2 2 2 2 2 2 2 2 2 2 2 2 2 2 2 2 2 2 2 2 2 2 2 2 2 2 2 2 2 2 2 2 2 2 2 2 2 2 2 2 2 2 2 2 2 2 2 2 2 ",
"2 2 2 2 2 2 2 2 2 2 2 2 2 2 2 2 2 2 2 2 2 2 2 2 2 2 2 2 2 2 2 2 2 2 2 2 2 2 2 2 2 2 2 2 2 2 2 2 2 2 ",
"2 2 2 2 2 2 2 2 2 2 2 2 2 2 2 2 2 2 2 2 2 2 2 2 2 2 2 2 2 2 2 2 2 2 2 2 2 2 2 2 2 2 2 2 2 2 2 2 2 2 ",
"2 2 2 2 2 2 2 2 2 2 2 2 2 2 2 2 2 2 2 2 2 2 2 2 2 2 2 2 2 2 2 2 2 2 2 2 2 2 2 2 2 2 2 2 2 2 2 2 2 2 ",
"2 2 2 2 2 2 2 2 2 2 2 2 2 2 2 2 2 2 2 2 2 2 2 z M ( I 2 2 2 2 2 2 2 2 2 2 2 2 2 2 2 2 2 2 2 2 2 2 2 ",
"2 2 2 2 2 2 2 2 2 2 2 2 2 2 2 2 2 2 2 2 2 2 3 _ M.@Xz.2 2 2 2 2 2 2 2 2 2 2 2 2 2 2 2 2 2 2 2 2 2 2 ",
"2 2 2 2 2 2 2 2 2 2 2 2 2 2 2 2 2 2 2 2 2 7 *.3.M.@X].I.g 2 2 2 2 2 2 2 2 2 2 2 2 2 2 2 2 2 2 2 2 2 ",
"2 2 2 2 2 2 2 2 2 2 2 2 2 2 2 2 2 2 2 2 2 a M.M.M.@X@X@Xj 2 2 2 2 2 2 2 2 2 2 2 2 2 2 2 2 2 2 2 2 2 ",
"2 2 2 2 2 2 2 2 2 2 2 2 2 2 2 2 2 2 2 2 2 a M.M.M.@X@X@Xj 2 2 2 2 2 2 2 2 2 2 2 2 2 2 2 2 2 2 2 2 2 ",
"2 2 2 2 2 2 y.i.2 2 2 2 2 2 2 2 2 2 2 2 2 a M.M.M.@X@X@Xj 2 2 2 2 2 2 2 2 2 2 2 2 2 2 2 2 2 2 2 2 2 ",
"2 2 2 2 3 7 I.E.7 3 2 2 2 2 2 2 2 2 2 2 2 i N.N.N.+X+X+Xj 2 2 2 2 2 2 2 2 2 2 2 2 2 2 2 2 2 2 2 2 2 ",
"2 2 2 2 M M.|.@X@Xt.2 2 2 2 2 2 2 2 2 2 2 9 0.0.0.0.0.0.9 2 2 2 2 2 2 2 2 2 2 2 2 2 2 2 2 2 2 2 2 2 ",
"2 2 2 2 M M.|.@X@Xt.2 2 2 2 2 2 2 2 t A A H f.f.f.f.l.L.W A A t 2 2 2 2 2 2 2 2 2 2 2 2 2 2 2 2 2 2 ",
"2 2 2 2 M M.|.@X@Xt.2 2 2 2 2 2 2 2 d O.O.O.O.O.o.-.Z.@X>.O.O.d 2 2 2 2 2 2 2 2 2 2 2 2 2 2 2 2 2 2 ",
"2 2 2 =.m.M.|.@X@XoX].2 2 2 2 2 2 { o.O.O.O.O.O.O.O.-.:.[.OXOXg.{ 2 2 2 2 2 2 2 2 2 2 2 2 2 2 2 2 2 ",
"2 2 2 3.M.M.|.@X@X@XXX3 2 2 2 t b ..O.O.O.O.O.O.O.O.O.O. X@X@Xj...b t 2 2 2 2 2 2 2 2 2 2 2 2 2 2 2 ",
"2 2 2 3.M.M.|.@X@X@XXX2 2 2 2 B O.O.O.O.O.O.O.O.O.O.O.O. X@X@Xj.O.O.B 3 2 2 2 2 2 2 2 2 2 2 2 2 2 2 ",
"2 2 2 3.M.M.|.@X@X@XoX2 2 2 { ..O.O.O.O.O.O.O.O.O.O.O.O.,.,.,.-.O.O. .{ 2 2 2 2 2 2 2 2 2 2 2 2 2 2 ",
"2 i n 4.M.M.|.@X@X@XoXR m s o.O.O.O.O.O.O.O.O.O.O.O.O.O.O.O.O.O.O.O.O.o.s t 2 2 2 2 2 2 2 2 2 2 2 2 ",
"2 ) M.M.M.M.|.@X@X@X@X@XS.o.O.O.O.O.O.O.O.O.O.O.O.O.O.O.O.O.O.O.O.O.O.O.O.A 2 2 2 2 2 2 2 2 2 2 2 2 ",
"2 ) M.M.M.M.|.@X@X@X@X@XS.O.O.O.O.O.O.O.O.O.O.O.O.O.O.O.O.O.O.O.O.O.O.O.O. .' 4 2 2 2 2 2 2 2 2 2 2 ",
"2 ) M.M.M.M.|.@X@X@X@X@XA.O.O.O.O.O.O.O.O.O.O.o.O.O.O.O.O.O.O.O.O.O.O.O.O.O.O.4 2 2 2 2 2 2 2 2 2 2 ",
"2 ) M.M.M.M.|.@X@X@X@X@XS.-.O.O.O.O.O.O.O.O.O.O.O.O.O.O.O.o.O.O.O.O.O.O.O.O.O.4 2 2 2 2 2 2 2 2 2 2 ",
"2 ) M.M.M.M.|.@X@X@X@X@XA.O.O.O.O.A.Z.@.+.O.O.O.O.O.O.-.A.V.@.+.O.O.O.O.O.k.G.c.r.2 2 2 2 2 2 2 2 2 ",
"2 ) M.M.M.M.|.@X@X@X@X@XA.-.O.O.O./.(.2.+.O.O.O.O.O.O.O. X~.2.+.O.O.O.O.O.A.@X@Xb.2 2 2 2 2 2 2 2 2 ",
"2 ) M.M.M.M.|.@X@X@X@X@XA.o.O.O.O.1.2.2.+.O.O.O.O.O.O.O.1.2.2.+.O.O.O.O.O.+.2.^ ~ 2 2 2 2 2 2 2 2 2 ",
"2 ) M.M.M.M.|.@X@X@X@X@XS.O.O.O.O.@.@.@.+.O.O.O.O.O.O.O.@.@.@.+.O.O.O.O.O.+.@.<.` 2 2 2 2 2 2 2 2 2 ",
"2 ) M.M.M.M.|.@X@X@X@X@XS.-.O.O.O.O.O.O.O.O.O.O.O.O.O.O.O.O.O.o.O.O.O.O.O.O.O.O.G 2 2 2 2 2 2 2 2 2 ",
"2 ) M.M.M.M.|.@X@X@X@X@XS.O.O.o.O.O.O.O.O.O.O.O.O.O.O.o.O.O.O.O.O.O.O.O.O.o.O.O.o...y 2 2 2 2 2 2 2 ",
"2 ) M.M.M.M.|.@X@X@X@X@XC.| | | | | | | | } F F F F F F F ' | | | | | |  .|  . . .O.p 2 2 2 2 2 2 2 ",
"2 ) M.M.M.M.|.@X@X@X@X@Xx.N N N k k N N k k               $ k k k N N N N N k k ! O.p 2 2 2 2 2 2 2 ",
"2 ) M.M.M.M.|.@X@X@X@X+XA. . . .o.* # # # #               . $ % # $ y N  . . . ...O.p 2 2 2 2 2 2 2 ",
"2 ) M.M.M.M.|.@X@X@X@X@XA.O.O...[ 8 : : : : : O               ; > : h E #.&.O.O.O.O.p 2 2 2 2 2 2 2 ",
"2 ) M.M.M.M.|.@X@X@X@X@XS.-.O.Z   8.0.0.0.0.0.w               7.0.0.0.0.0.f.O.O.O.O.p 2 2 2 2 2 2 2 ",
"3 a M m.M.M.|.@X@X@XOXB.,.O.u Y p.)._._._._._.J.p.        1 p.)._._.)._._.T.Y.-.O.O.p 2 2 2 2 2 2 2 ",
"3 5 5 n.N.N./.XX+X+XXX%.%.O., q.@X@X@X@X@X@XXXXXXX+ .   ; r XXXXXX@X@X@X@X@X@X>.-.O.d 4 2 2 2 2 2 2 ",
"2 P 0.0.0.0.0.0.0.0.0.0.f.O.OX@X@X@X@X@X@X`.      @Xu.  `.p.    1 @X@X@X@X@X@X@XY.O.O.{ 2 2 2 2 2 2 ",
"5 9 6.6.9.L.L.L.L.l.f.f.$.O.OX@X@X@X@X@X@X`.      @Xu.  `.P.    1 @X@X@X@X@X@X@XY.O.O.{ 2 2 2 2 2 2 ",
"2 2 2 2 9.@X@X@X@XB.+.o.O.O.OX@X@X@X@X@X@X`.      @Xu.  `.p.    1 @X@X@X@X@X@X@XY.O.-.{ 2 2 2 2 2 2 ",
"2 2 2 E.|.@X@X@X@XOX XN N N oX@X@X@X@X@X@X{.k k k @Xu.  `.U.N k Q @X@X@X@X@X@X@XD.N N f 2 2 2 2 2 2 ",
"2 2 2 '.@X@X@X@X@X@XoX! ! ! OX@X@X@X@X@X@XXXs.s.s.@Xu.  `.W.s.s.x.@X@X@X@X@X@X@XF.! ! V 2 2 2 2 2 2 ",
"2 2 2 '.@X@X@X@X@X@XOXO.o.O.OX@X@X@X@X@X@X@X@X@X@X@Xu.  `.@X@X@X@X@X@X@X@X@X@X@XY.O.O.{ 2 2 2 2 2 2 ",
"2 2 2 '.@X@X@X@X@X@XOXO.O.O.q e.@X@X@X@X@X@X@X@X@X1 >   < w.@X@X@X@X@X@X@X@X@Xj.>.O.O.{ 2 2 2 2 2 2 ",
"2 2 2 b.E.@X@X@X@X X!.O.O.O.- T P.P.P.P.P.P.P.P.P.        e P.P.P.P.P.P.R.Q.^.;.O.O.O.{ 2 2 2 2 2 2 ",
"2 2 2 2 ( @X@X@X@XB.O.O.O.O.O.Z                                       . k ] O.O.O.O.O.{ 2 2 2 2 2 2 ",
"2 2 2 2 L H.H.H.H.d.O.O.O.O.O. .F F x                               & y | ..O.O.O.O.O.{ 2 2 2 2 2 2 ",
"2 2 2 2 K 0.0.0.0.a.O.O.O.O.O.O.O.O./ o @ o                   X X X y C O.O.O.O.O.O.O.{ 2 2 2 2 2 2 ",
"2 2 2 2 K 0.0.0.0.a.O.O.O.O.O.O.O.O.+.O.O. .                  y N N { O.O.O.O.O.O.O.O.{ 2 2 2 2 2 2 ",
"2 2 2 2 9 P P P P U B B B B B D ! x l l l 6                   % = y c B B B B B B B B c 2 2 2 2 2 2 ",
"2 2 2 2 3 2 2 2 2 2 2 2 2 2 2 t k @   .                         . 2 2 2 2 2 2 2 2 2 2 2 2 2 2 2 2 2 "
};
