/* XPM */
static char *exit_close[] = {
/* columns rows colors chars-per-pixel */
"50 50 69 1",
"  c #32313B",
". c #32313C",
"X c #32323E",
"o c #33323E",
"O c #333240",
"+ c #333340",
"@ c #333342",
"# c #343342",
"$ c #353545",
"% c #363649",
"& c #36374A",
"* c #37374B",
"= c #37374C",
"- c #37384D",
"; c #38384E",
": c #363750",
"> c #373955",
", c #383950",
"< c #393A53",
"1 c #3A3B55",
"2 c #3A3B56",
"3 c #3B3C57",
"4 c #393B5D",
"5 c #3B3C58",
"6 c #3B3C5A",
"7 c #3B3D5A",
"8 c #3B3D5B",
"9 c #3C3D5B",
"0 c #3C3E5D",
"q c #3D3E5E",
"w c #3D3E5F",
"e c #3B3E65",
"r c #3B3E66",
"t c #3C3E60",
"y c #3D3F62",
"u c #3C3F66",
"i c #3C3F67",
"p c #3C3F68",
"a c #3F4165",
"s c #3D4068",
"d c #3D4069",
"f c #3E4169",
"g c #3E416A",
"h c #3E416B",
"j c #3F426C",
"k c #404269",
"l c #40436D",
"z c #41436C",
"x c #40436E",
"c c #41446C",
"v c #41446F",
"b c #424570",
"n c #424571",
"m c #424572",
"M c #434673",
"N c #444774",
"B c #444979",
"V c #44497A",
"C c #454C7E",
"Z c #464D81",
"A c #475088",
"S c #47518B",
"D c #47528C",
"F c #485592",
"G c #495899",
"H c #4A5B9F",
"J c #4B5EA6",
"K c #4B5FA8",
"L c #4C60AA",
/* pixels */
"LLLLLLLLLLLLLLLLLLLLLLLLLLLLLLLLLLLLLLLLLLLLLLLLLL",
"LLLLLLLLLLLLLLLLLLLLLLLLLLLLLLLLLLLLLLLLLLLLLLLLLL",
"LLLLLLLLLLLLLLLLLLLLLLLLLLLLLLLLLLKKLLLLLLLLLLLLLL",
"LLLLLLLLLLLLLLLLLLLLLLLLLLLLLLLLLKKKLLLLLLLLLLLLLL",
"LLLLLLLLLJGGGGGGGGGGGGGGGGGGGGGGGGGGGGGGJKKKKKLLLL",
"LLLLLLLLLAmmNMMMMmNNNNNNNNNNNNNNMMNNMMMMAKKKLKLKLL",
"LLLLKJSZZVMMNNMMNNNNNNNNNNNNNNNNMMMMNNMMVZZDLKKKLL",
"LLLLJJCMNNMkkzkkkkkkkkkkkkkkkkkkkkzkzcpnNNNZJKKKLL",
"LLLLGNNNNMm             ..o            nNNMMMGKKLL",
"LLLSZNNNNt,2>>>>>>>>>>>222>:>>>>>>>>>>><wNNMMZFKLL",
"LLJVNNMMb,oeeeeeeeeeeeeeeeeeeeeeeeeeeeeO<mMMMMCJKL",
"LFMMNMMk >eeeeeeeeeeeeeeeeeeeeeeeeeeeeee< xMMMNNGL",
"LFNNNNt2:4eeeeeeeeeeeeeeeeeeeeeeeeeeeeee4<<8NNNNFK",
"LFNNNN%#eeeeeeeeeeeeeeeeeeeeeeeeeeeeeeeeee#%NNNNFK",
"LFMNNN*#eeeeeeeeeeeexMMbbeeeeeeeeeeeeeeeee#%NNNNFK",
"LFMMNN%#eeeeeeeeeepptwtwwgueeeeeeeeeeeeeee#%NNNNFK",
"KFNNMM%@eeeeeeeeeepN=    mxeeeeeeeeeeeeeee#%NNNNFK",
"KGNNMM%@eeeeeeeeeepN=    $5beeeeuueeeeeeee#%NNNNFK",
"KGNNMN%#eeeeeepgpghM=     ;aggppppueeeeeee#%NNNNFK",
"KFNNNN%#eeeeeemmMMMM=       xMMMMMpueeeeee#%NNNNGK",
"KFMMMV*#eeeegx;;;;==#       %;*;;%txeeeeee@%MMNNFK",
"KFMMMM%#eeeukzo                   8xuueeee@%MMNNFK",
"KFMMMM%#eeum5                      #mxeeee@%MNNNGK",
"KGNNMM%#eeuM2                      .Mkeeee@%MNNNFK",
"KGMNNN*#eeeM5o                     Xmxeeee@%NNNNFK",
"KFMMNN*#eeeM2                      .mxeeee@%NNNNFK",
"KFmMMM*#eeekt2                    *3xpeeee@%NNNNFK",
"KGmMMM*#eeeexmo                   wmeeeeee#=NNNNFK",
"KFNNMM;#eeeeuuxw                  wmeeeeee@%NNNNGL",
"KGNNMM*#eeeeeext*X                wbeeeeee@%NNNNFK",
"KFMNMM*#eeeeeeehm$                eMeeeeee@%NNNNFK",
"KFMMMM%#eeeeeeekM$                wMeeeeee@%NNNNFK",
"KFMMNN%#eeeeeeepN%                wmeeeeee#%bMMMFK",
"KGMMNN%#eeeeeeipM#                wmeeeeee#%MMNNGL",
"KFMMNN%#eeeeerrpM%                wmeeeeee#%NNNNFK",
"KFNNNN%#eeeeerppM#       XX#    .Xtmeeeeee#%NNNNFK",
"LGNNNN%#eeeeeeepM#       MMM#.  $Mpuueeeee#%NNNNFK",
"KFNNNN*#eeeeeerpx5<    *3xpx55355xueeeeeee@%NNNNFK",
"KFNNNN;#eeeeeeeeena    4MeeemMMMmeeeeeeeee#%NNNNFK",
"KFNNNN*#eeeeeeeeeupbbbnnueeeuuuuuueeeeeeee#;NNNNGK",
"KFNNNN%@eeeeeeeeeerpnnppeeeeeeeeeeeeeeeeee@%MMMNFK",
"KFNNNN%@eeeeeeeeeeeeeeeeeeeeeeeeeeeeeeeeee@%MMNNFK",
"KFNNNN%@eeeeeeeeeeeeeeeeeeeeeeeeeeeeeeeeee@%NNNNFK",
"KFNNNN%@eeeeeeeeeeeeeeeeeeeeeeeeeeeeeeeeee@%NNNNGK",
"KFNNNN%@eeeeeeeeeeeeeeeeeeeeeeeeeeeeeeeeee@%NNNNFK",
"LGNNNN%@eeeeeeeeeeeeeeeeeeeeeeeeeeeeeeeeee@%NNNNFK",
"KFNNNN%@eeeeeeeeeeeeeeeeeeeeeeeeeeeeeeeeee#*NNNNFK",
"KFNNNM%@eeeeeeeeeeeeeeeeeeeeeeeeeeeeeeeeee#=NNNNFK",
"KFNNNN=@eeeeeeeeeeeeeeeeeeeeeeeeeeeeeeeeee@%MMNNFK",
"KFNNNN*@ereeeeeeeeeeeeeeeeeeeeeeeeeeeeeeee@%MMMMGK"
};
