/* XPM */
static char *exit_open[] = {
/* columns rows colors chars-per-pixel */
"50 50 46 1",
"  c #32313B",
". c #32313C",
"X c #32313D",
"o c #333342",
"O c #343445",
"+ c #343548",
"@ c #35354A",
"# c #35364B",
"$ c #363649",
"% c #38384F",
"& c #363750",
"* c #373955",
"= c #393952",
"- c #383A59",
"; c #383B5B",
": c #393B5D",
"> c #3C3E5D",
", c #3D3E5E",
"< c #393C60",
"1 c #3A3D62",
"2 c #3A3D64",
"3 c #3B3E65",
"4 c #3C3F67",
"5 c #3C3F68",
"6 c #3D4068",
"7 c #3E416A",
"8 c #3E416B",
"9 c #404269",
"0 c #41446F",
"q c #424570",
"w c #424571",
"e c #434673",
"r c #444774",
"t c #444979",
"y c #44497A",
"u c #454C7E",
"i c #464D81",
"p c #475088",
"a c #47518B",
"s c #47528C",
"d c #485592",
"f c #495899",
"g c #4A5B9F",
"h c #4B5EA6",
"j c #4B5FA8",
"k c #4C60AA",
/* pixels */
"kkkkkkkkkkkkkkkkkkkkkkkkkkkkkkkkkkkkkkkkkkkkkkkkkk",
"kkkkkkkkkkkkkkkkkkkkkkkkkkkkkkkkkkkkkkkkkkkkkkkkkk",
"kkkkkkkkkkkkkkkkkkkkkkkkkkkkkkkkkkkkkkkkkkkkkkkkkk",
"kkkkkkkkkkkkkkkkkkkkkkkkkkkkkkkkkkkkkkkkkkkkkkkkkk",
"kkkkkkkkkhdfffffffffffffffffffffffffffffhjkkkkkkkk",
"kkkkkkkkkpeerrrrrerrrrrrrrrrrrrrrrrrrrrrpkkkkkkkkk",
"kkkkjhaiiyrrrreerrrrrrrrrrrrrrrrrrrrrrrrriiskjjkkk",
"kkkkhhuerre9999999999999999999999999999qrrruhhkkkk",
"kkkkfrrrrrq.            .              qrreerfjjkk",
"kkkairrrr,%                            %1rreriajkk",
"kjhyrreeq%                              =qeerrthjk",
"kdeerre9                                  8rrrrrdk",
"kdrrrr,=                                  =,rrrrdk",
"kdrrrr$                                    $rrrrdk",
"kderrr$                                    $rrrrdk",
"kdeerr$.                                   $rrrrdk",
"kdrrrr$                                    $rrrrfj",
"kdrrrr$                                    $rrrrdj",
"kdrrrr$                                    $rrrrdj",
"kdrrrr$                                    $rrrrfj",
"kdrrrr$                                    $rrrrdj",
"kdrrrr$                                    $rrrrdj",
"kdrrrr$                                    $rrrrdj",
"kdrrre$                                    $rrrrdj",
"kdrrrr$                                    $rrrrdj",
"kdrrrr$                                    $rrrrfj",
"kdrrrr$                                    @rrrrdj",
"kdrrrr$                                    @rrrrdj",
"kdrrrr$                                    $rrrrfj",
"kdrrrr$                                    $rrrrdj",
"kdrrrr$                                    $rrrrdj",
"kdrrrr$                                    $rrrtdj",
"kdrrrr$                                    $rrrrdj",
"kdrrrr$                                    $rrrrdj",
"kdrrrr$          &**-**-*******-&          @rrrrdj",
"kdrrrr$       XX -33:33:33:333::;o         @rrrrdj",
"kdrrrr$       123o              o33:       $rrrrdj",
"kdrrrr$     O=%%&&&&&&&&&&&&&&&&&&&&&O     $rrrrfj",
"kdrrrr$     %2.  :33333333333333;   3&     $rrrrdj",
"kdrrrr$     %2.  ;33333333333333;  o3&     $rrrrdj",
"jdrrrr$     O-###:33333333333333:#O#-O    .$rrrrdj",
"jdrrrr$       3333333333333333333333      .$rrrrfj",
"jdrrrrO  &::;;3343343434334333443333;:;;%  +rrrrdj",
"jdrrrr% O-333333244445455455445553333433;ooOrrrrdj",
"jdrrrr$o333333334rrrrrrrrrrrrrrr8444222322o$rrrrdj",
"kfrrrr$o333333348rrrrrrrrrrrrrrrt843242422o$rrrrfj",
"jdrrrr@o33333335rrrrrrrrrrrrrrrrrr54224222o$rrrrdj",
"jdrrrr$o33333445rrrrrrrrrrrrrrrrrt53222222o$rrrrdj",
"jdrrrr%o2222222488888888588888585843333333o$rrrrdj",
"jdrtrr+o2222242242222242334222343433333333o$rrrrdj"
};
