/* XPM */
static char *player_on_exit[] = {
/* columns rows colors chars-per-pixel */
"32 32 9 1 ",
"  c #32313B",
". c #444774",
"X c #4C60AA",
"o c #CA60AE",
"O c #5FA1E7",
"+ c #2CE8F5",
"@ c #5FC9E7",
"# c #85DAEB",
"$ c white",
/* pixels */
"XXXXXXXXXXXXXXXXXXXXXXXXXXXXXXXX",
"XXXXXXXXXXXXXXXXXXXXXXXXXXXXXXXX",
"XXXXXXXXXXXXXXX#$XXXXXXXXXXXXXXX",
"XXXXXXXXXXXXXX##$$XXXXXXXXXXXXXX",
"XXXXXXXXXXXXXX##$$XXXXXXXXXXXXXX",
"XXXX$XXXXXXXXX##$$XXXXXXXXXXXXXX",
"XXX#$$XXXXXXXXooooXXXXXXXXXXXXXX",
"XXX#$$XXXXXXOOOOO$OOXXXXXXXXXXXX",
"XX##$$$XXXXOOOOOOO$$OXXXXXXXXXXX",
"XX##$$$XXXOOOOOOOO$$OOXXXXXXXXXX",
"XX##$$$XXOOOOOOOOOOOOOOXXXXXXXXX",
"X###$$$$OOOOOOOOOOOOOOOOXXXXXXXX",
"X###$$$$OOOOOOOOOOOOOOOOOXXXXXXX",
"X###$$$$OOOOOOOOOOOOOOOOOXXXXXXX",
"X###$$$$OOO$@OOOOO$@OOOO$$XXXXXX",
"X###$$$$OOO@@OOOOO@@OOOO@+XXXXXX",
"X###$$$$OOOOOOOOOOOOOOOOOOXXXXXX",
"X###$$$$OOOOOOOOOOOOOOOOOOOXXXXX",
"X###$$$$XXXXXX     XXXXXXXOXXXXX",
"X###$$$$OOO           XOOOOXXXXX",
"X###$$$$OO oooo     ooooOOOXXXXX",
"XX##$$$OO $$$$$$   $$$$$$OOXXXXX",
"XoooooooO$$$$$  $ $  $$$$$OOXXXX",
"XXX$$$OOO$$$$$  $ $  $$$$$OOXXXX",
"XX$$$$$XX$$$$$XX$ $XX$$$$$XXXXXX",
"XX$$$$$OO$$$$$$$$ $$$$$$$$OOXXXX",
"XX$$$$$OO $$$$$$   $$$$$$OOOXXXX",
"XXX$$$OOOO            XOOOOOXXXX",
"XXXoooOOOOOO         XOOOOOOXXXX",
"XXXoooOOOOOOOO      XOOOOOOOXXXX",
"XXXXXXXXXX   XXXXXXX   XXXXXXXXX",
"XXXXXXXXX   XXXXXXXXX   XXXXXXXX"
};
